<svg xmlns="http://www.w3.org/2000/svg" width="69.457" height="18.079" viewBox="0 0 69.457 18.079">
  <g id="Group_3" data-name="Group 3" transform="translate(-36 -12.96)">
    <g id="Group_1" data-name="Group 1" transform="translate(36 12.96)">
      <path id="Path_2" data-name="Path 2" d="M303.75.16a9.037,9.037,0,1,1,0,18.075" transform="translate(-294.614 -0.155)" fill="#fff"/>
      <rect id="Rectangle_2" data-name="Rectangle 2" width="9.136" height="18.065" transform="translate(0 0.01)" fill="#fff"/>
      <path id="Path_3" data-name="Path 3" d="M12.407,0a9.037,9.037,0,0,0,0,18.075" transform="translate(-3.269)" fill="#051111"/>
    </g>
    <path id="Path_11" data-name="Path 11" d="M.7,0V-12.368H9.322v2.432H3.677v2.5h5.2v2.374h-5.2v2.631H9.313V0ZM13.522-12.368,16.27-3.312h.116l2.764-9.056h3.337L18.312,0H14.344L10.16-12.368Zm12.85,0,2.258,3.91h.1L31-12.368h3.354L30.613-6.176,34.473,0H31.037L28.729-3.943h-.1L26.305,0h-3.4l3.827-6.176L23-12.368Zm12.028,0V0h-2.98V-12.368ZM45.563.166a6.129,6.129,0,0,1-3.009-.739,5.31,5.31,0,0,1-2.117-2.154,7.084,7.084,0,0,1-.776-3.449,7.152,7.152,0,0,1,.776-3.466A5.27,5.27,0,0,1,42.554-11.8a6.157,6.157,0,0,1,3.009-.735,6.116,6.116,0,0,1,3,.735,5.3,5.3,0,0,1,2.117,2.158,7.121,7.121,0,0,1,.78,3.466,7.078,7.078,0,0,1-.78,3.453A5.31,5.31,0,0,1,48.56-.569,6.116,6.116,0,0,1,45.563.166Zm0-2.615A2.664,2.664,0,0,0,47.09-2.88a2.711,2.711,0,0,0,.979-1.262,5.37,5.37,0,0,0,.34-2.034,5.428,5.428,0,0,0-.34-2.046,2.709,2.709,0,0,0-.979-1.266,2.664,2.664,0,0,0-1.527-.432,2.664,2.664,0,0,0-1.527.432,2.734,2.734,0,0,0-.984,1.266,5.37,5.37,0,0,0-.344,2.046,5.312,5.312,0,0,0,.344,2.034,2.736,2.736,0,0,0,.984,1.262A2.664,2.664,0,0,0,45.563-2.449Z" transform="translate(54 28)" fill="#fff"/>
  </g>
</svg>
