<svg xmlns="http://www.w3.org/2000/svg" width="88.821" height="18" viewBox="0 0 88.821 18">
  <g id="Group_3" data-name="Group 3" transform="translate(-36 -14.627)">
    <g id="Group_1" data-name="Group 1" transform="translate(36 14.627)">
      <path id="Path_2" data-name="Path 2" d="M303.75.16a9,9,0,1,1,0,18" transform="translate(-294.614 -0.155)" fill="#fff"/>
      <rect id="Rectangle_2" data-name="Rectangle 2" width="9.136" height="17.986" transform="translate(0 0.01)" fill="#fff"/>
      <path id="Path_3" data-name="Path 3" d="M12.407,0a9,9,0,1,0,0,18" transform="translate(-3.269)" fill="#051111"/>
    </g>
    <path id="Path_11" data-name="Path 11" d="M.8,5.231V-12.3H12.609V-9.24H4.491v4.118H12v3H4.491V2.172h8.141V5.231ZM17.938-12.3,22.162,1.019h.165L26.573-12.3h4.094L24.632,5.231H19.856L13.809-12.3Zm17.518,0,3.529,5.976h.141L42.667-12.3h4.188L41.5-3.522l5.482,8.753H42.7L39.126-.746h-.141l-3.6,5.976H31.15l5.482-8.753L31.244-12.3Zm16.635,0V5.231H48.4V-12.3ZM62.244,5.466a8.311,8.311,0,0,1-4.188-1.059,7.56,7.56,0,0,1-2.941-3.071,10.129,10.129,0,0,1-1.082-4.859,10.218,10.218,0,0,1,1.082-4.888,7.512,7.512,0,0,1,2.941-3.071,8.347,8.347,0,0,1,4.188-1.053,8.347,8.347,0,0,1,4.188,1.053,7.474,7.474,0,0,1,2.935,3.071,10.264,10.264,0,0,1,1.076,4.888,10.2,10.2,0,0,1-1.076,4.871,7.482,7.482,0,0,1-2.935,3.065A8.347,8.347,0,0,1,62.244,5.466Zm0-3.271A4.179,4.179,0,0,0,64.6,1.536,4.237,4.237,0,0,0,66.144-.4a7.927,7.927,0,0,0,.547-3.124,8.006,8.006,0,0,0-.547-3.141A4.233,4.233,0,0,0,64.6-8.6a4.179,4.179,0,0,0-2.353-.659A4.158,4.158,0,0,0,59.9-8.6a4.3,4.3,0,0,0-1.559,1.941,7.856,7.856,0,0,0-.559,3.141A7.779,7.779,0,0,0,58.344-.4,4.308,4.308,0,0,0,59.9,1.536,4.158,4.158,0,0,0,62.244,2.2Z" transform="translate(54.377 27.161)" fill="#fff"/>
  </g>
</svg>

